Coordinates
version=1
nRows=54
nColumns=12
inDegrees=yes

Units are S.I. units (second, meters, Newtons, ...)
Angles are in degrees

endheader
time	SC_y	SC_z	SC_x	AC_y	AC_z	AC_x	GH_y	GH_z	GH_yy	EL_x	PS_y
       0.0              -24.81          28.53          16.16          34.85         -1.112          16.66          77.49          18.98         -157.4          130.9          51.22
   0.01322              -24.81          28.53          16.17          34.85         -1.112          16.66          77.49          18.99         -157.4          130.9          51.22
   0.02645              -24.81          28.52          16.17          34.85         -1.112          16.66          77.49          18.99         -157.4          130.8          51.22
   0.03967              -24.81          28.52          16.18          34.85         -1.112          16.65          77.48           19.0         -157.4          130.8          51.22
    0.0529              -24.81          28.51          16.18          34.86         -1.111          16.65          77.48          19.01         -157.4          130.8          51.22
   0.06612              -24.82          28.51          16.19          34.86         -1.111          16.64          77.47          19.01         -157.4          130.8          51.22
   0.07934              -24.82           28.5          16.19          34.86         -1.111          16.64          77.47          19.02         -157.4          130.8          51.22
   0.09257              -24.82           28.5           16.2          34.86         -1.111          16.64          77.46          19.03         -157.4          130.7          51.21
    0.1058              -24.82          28.49          16.21          34.86         -1.111          16.63          77.46          19.04         -157.4          130.7          51.21
     0.119              -24.82          28.49          16.22          34.87          -1.11          16.63          77.45          19.05         -157.4          130.7          51.21
    0.1322              -24.83          28.48          16.22          34.87          -1.11          16.62          77.45          19.06         -157.4          130.7          51.21
    0.1455              -24.83          28.48          16.23          34.87          -1.11          16.61          77.44          19.07         -157.4          130.6          51.21
    0.1587              -24.83          28.47          16.24          34.88          -1.11          16.61          77.43          19.08         -157.4          130.6           51.2
    0.1719              -24.83          28.46          16.25          34.88          -1.11           16.6          77.42          19.09         -157.4          130.6           51.2
    0.1851              -24.84          28.45          16.26          34.88         -1.109          16.59          77.42          19.11         -157.5          130.5           51.2
    0.1984              -24.84          28.45          16.27          34.89         -1.109          16.58          77.41          19.12         -157.5          130.5           51.2
    0.2116              -24.84          28.44          16.29          34.89         -1.109          16.58           77.4          19.14         -157.5          130.4          51.19
    0.2248              -24.85          28.43           16.3           34.9         -1.108          16.57          77.38          19.16         -157.5          130.4          51.19
     0.238              -24.85          28.41          16.31           34.9         -1.108          16.55          77.37          19.18         -157.5          130.3          51.19
    0.2513              -24.86           28.4          16.33          34.91         -1.107          16.54          77.36           19.2         -157.5          130.3          51.18
    0.2645              -24.86          28.39          16.35          34.91         -1.107          16.53          77.34          19.22         -157.5          130.2          51.18
    0.2777              -24.87          28.37          16.37          34.92         -1.106          16.52          77.33          19.25         -157.5          130.1          51.17
    0.2909              -24.88          28.36          16.39          34.93         -1.106           16.5          77.31          19.28         -157.5          130.0          51.17
    0.3042              -24.88          28.34          16.42          34.94         -1.105          16.48          77.29          19.31         -157.5          129.9          51.16
    0.3174              -24.89          28.32          16.44          34.95         -1.104          16.46          77.27          19.35         -157.5          129.8          51.16
    0.3306               -24.9          28.29          16.47          34.96         -1.103          16.44          77.24          19.39         -157.5          129.7          51.15
    0.3438              -24.91          28.27          16.51          34.97         -1.102          16.42          77.22          19.43         -157.5          129.6          51.14
     0.357              -24.92          28.24          16.54          34.98         -1.101          16.39          77.19          19.48         -157.5          129.5          51.13
    0.3703              -24.93          28.21          16.59           35.0           -1.1          16.36          77.15          19.54         -157.5          129.3          51.12
    0.3835              -24.95          28.17          16.64          35.02         -1.099          16.32          77.11           19.6         -157.5          129.1          51.11
    0.3967              -24.96          28.13          16.69          35.04         -1.097          16.28          77.07          19.68         -157.5          128.9          51.09
    0.4099              -24.98          28.08          16.75          35.06         -1.096          16.24          77.01          19.76         -157.5          128.7          51.08
    0.4232              -25.01          28.02          16.83          35.09         -1.094          16.19          76.95          19.86         -157.6          128.4          51.06
    0.4364              -25.03          27.96          16.91          35.12         -1.091          16.12          76.88          19.97         -157.6          128.1          51.04
    0.4496              -25.06          27.88          17.01          35.15         -1.088          16.05           76.8           20.1         -157.6          127.7          51.02
    0.4628               -25.1          27.79          17.13           35.2         -1.085          15.97          76.71          20.26         -157.6          127.3          50.99
    0.4761              -25.14          27.69          17.27          35.25         -1.081          15.87          76.59          20.44         -157.6          126.7          50.95
    0.4893              -25.19          27.56          17.44          35.31         -1.077          15.75          76.45          20.67         -157.7          126.1          50.91
    0.5025              -25.25          27.41          17.64          35.38         -1.071           15.6          76.29          20.94         -157.7          125.3          50.86
    0.5157              -25.32          27.22          17.89          35.47         -1.064          15.42          76.09          21.26         -157.8          124.4           50.8
     0.529              -25.41          26.99           18.2          35.58         -1.056           15.2          75.84          21.67         -157.8          123.3          50.73
    0.5422              -25.52           26.7          18.58          35.71         -1.045          14.93          75.52          22.17         -157.9          121.8          50.63
    0.5554              -25.67          26.33          19.06          35.89         -1.032          14.58          75.13          22.81         -158.0          120.0          50.52
    0.5686              -25.85          25.87          19.68          36.11         -1.015          14.15          74.63          23.62         -158.1          117.7          50.37
    0.5819              -26.08          25.27          20.46          36.39        -0.9933          13.58          73.99          24.66         -158.3          114.8          50.18
    0.5951              -26.38          24.51          21.47          36.75        -0.9656          12.86          73.17          25.99         -158.4          111.0          49.93
    0.6083              -26.76          23.54          22.75          37.21        -0.9301          11.94          72.13          27.68         -158.7          106.2          49.62
    0.6215              -27.23          22.31          24.37          37.79        -0.8855          10.78          70.81          29.82         -159.0          100.2          49.22
    0.6347              -27.82          20.82          26.34          38.49        -0.8312          9.372           69.2          32.42         -159.4          92.83          48.74
     0.648              -28.49          19.09          28.62          39.31        -0.7682          7.736          67.34          35.44         -159.8          84.29          48.18
    0.6612              -29.22          17.21          31.09           40.2           -0.7          5.965          65.33           38.7         -160.3          75.05          47.58
    0.6744              -29.95          15.34          33.56          41.08        -0.6318          4.193          63.31          41.97         -160.8           65.8          46.98
    0.6876              -30.63          13.61          35.84           41.9        -0.5688          2.557          61.45          44.98         -161.2          57.26          46.42
    0.7009              -31.21          12.12          37.81          42.61        -0.5144          1.146          59.85          47.59         -161.6           49.9          45.94
